<?xml version="1.0" encoding="UTF-8" standalone="no"?>
<svg
   xmlns:dc="http://purl.org/dc/elements/1.1/"
   xmlns:cc="http://creativecommons.org/ns#"
   xmlns:rdf="http://www.w3.org/1999/02/22-rdf-syntax-ns#"
   xmlns:svg="http://www.w3.org/2000/svg"
   xmlns="http://www.w3.org/2000/svg"
   xmlns:sodipodi="http://sodipodi.sourceforge.net/DTD/sodipodi-0.dtd"
   xmlns:inkscape="http://www.inkscape.org/namespaces/inkscape"
   data-name="Layer 1"
   viewBox="0 0 64.529999 49.889999"
   x="0px"
   y="0px"
   version="1.1"
   id="svg22"
   sodipodi:docname="camera.svg"
   width="64.529999"
   height="49.889999"
   inkscape:version="0.92.2 (5c3e80d, 2017-08-06)">
  <metadata
     id="metadata28">
    <rdf:RDF>
      <cc:Work
         rdf:about="">
        <dc:format>image/svg+xml</dc:format>
        <dc:type
           rdf:resource="http://purl.org/dc/dcmitype/StillImage" />
        <dc:title>Artboard 15</dc:title>
      </cc:Work>
    </rdf:RDF>
  </metadata>
  <defs
     id="defs26" />
  <sodipodi:namedview
     pagecolor="#ffffff"
     bordercolor="#666666"
     borderopacity="1"
     objecttolerance="10"
     gridtolerance="10"
     guidetolerance="10"
     inkscape:pageopacity="0"
     inkscape:pageshadow="2"
     inkscape:window-width="686"
     inkscape:window-height="480"
     id="namedview24"
     showgrid="false"
     inkscape:zoom="1.888"
     inkscape:cx="32.86"
     inkscape:cy="-11.504233"
     inkscape:window-x="0"
     inkscape:window-y="0"
     inkscape:window-maximized="0"
     inkscape:current-layer="svg22" />
  <title
     id="title2">Artboard 15</title>
  <path
     d="M 41.52,0 H 23.01 a 5.8,5.8 0 0 0 -5.79,5.79 v 0.63 a 3.79,3.79 0 0 1 -3.79,3.79 H 5.79 A 5.8,5.8 0 0 0 0,16 v 28.1 a 5.8,5.8 0 0 0 5.79,5.79 H 58.74 A 5.8,5.8 0 0 0 64.53,44.1 V 16 A 5.8,5.8 0 0 0 58.74,10.21 H 51.1 A 3.79,3.79 0 0 1 47.31,6.42 V 5.8 A 5.8,5.8 0 0 0 41.52,0 Z M 2,20.26 h 3.69 a 4,4 0 0 1 4,4 V 35.2 a 4,4 0 0 1 -4,4 H 2 Z M 51.1,12.2 h 7.63 a 3.79,3.79 0 0 1 3.8,3.8 v 28.1 a 3.79,3.79 0 0 1 -3.79,3.79 H 5.79 A 3.79,3.79 0 0 1 2,44.1 v -2.9 h 3.69 a 6,6 0 0 0 6,-6 V 24.26 a 6,6 0 0 0 -6,-6 H 2 V 16 a 3.79,3.79 0 0 1 3.79,-3.79 h 7.63 A 5.8,5.8 0 0 0 19.21,6.42 V 5.8 A 3.79,3.79 0 0 1 23.01,2 h 18.51 a 3.79,3.79 0 0 1 3.79,3.79 v 0.63 a 5.8,5.8 0 0 0 5.79,5.79 z"
     id="path4"
     inkscape:connector-curvature="0" />
  <path
     d="M 32.26,19.45 A 10.28,10.28 0 1 0 42.55,29.73 10.29,10.29 0 0 0 32.26,19.45 Z m 0,18.55 A 8.28,8.28 0 1 1 40.54,29.72 8.29,8.29 0 0 1 32.26,38 Z"
     id="path6"
     inkscape:connector-curvature="0" />
  <path
     d="m 22.98,8.85 h 18.57 a 1,1 0 0 0 0,-2 H 22.98 a 1,1 0 0 0 0,2 z"
     id="path8"
     inkscape:connector-curvature="0" />
  <path
     d="M 32.26,13.78 A 15.95,15.95 0 1 0 48.21,29.73 16,16 0 0 0 32.26,13.78 Z m 0,29.9 A 13.95,13.95 0 1 1 46.21,29.73 14,14 0 0 1 32.26,43.68 Z"
     id="path10"
     inkscape:connector-curvature="0" />
  <path
     d="m 32.41,23.73 a 6,6 0 0 0 -6,6 1,1 0 0 0 2,0 4,4 0 0 1 4,-4 1,1 0 0 0 0,-2 z"
     id="path12"
     inkscape:connector-curvature="0" />
  <path
     d="m 32.41,27.25 a 2.49,2.49 0 0 0 -2.48,2.48 1,1 0 0 0 2,0 0.48,0.48 0 0 1 0.48,-0.48 1,1 0 0 0 0,-2 z"
     id="path14"
     inkscape:connector-curvature="0" />
  <path
     d="m 54.86,18.34 a 1.93,1.93 0 0 1 1.93,1.93 v 17.15 a 1,1 0 1 0 2,0 V 20.26 a 3.93,3.93 0 0 0 -3.93,-3.92 1,1 0 0 0 0,2 z"
     id="path16"
     inkscape:connector-curvature="0" />
</svg>
