<?xml version="1.0" encoding="UTF-8" standalone="no"?>
<svg
   xmlns:dc="http://purl.org/dc/elements/1.1/"
   xmlns:cc="http://creativecommons.org/ns#"
   xmlns:rdf="http://www.w3.org/1999/02/22-rdf-syntax-ns#"
   xmlns:svg="http://www.w3.org/2000/svg"
   xmlns="http://www.w3.org/2000/svg"
   xmlns:sodipodi="http://sodipodi.sourceforge.net/DTD/sodipodi-0.dtd"
   xmlns:inkscape="http://www.inkscape.org/namespaces/inkscape"
   data-name="Layer 1"
   viewBox="0 0 49.5 78.709999"
   x="0px"
   y="0px"
   version="1.1"
   id="svg14"
   sodipodi:docname="luggage 2.svg"
   width="49.5"
   height="78.709999"
   inkscape:version="0.92.2 (5c3e80d, 2017-08-06)">
  <metadata
     id="metadata20">
    <rdf:RDF>
      <cc:Work
         rdf:about="">
        <dc:format>image/svg+xml</dc:format>
        <dc:type
           rdf:resource="http://purl.org/dc/dcmitype/StillImage" />
        <dc:title>Artboard 1</dc:title>
      </cc:Work>
    </rdf:RDF>
  </metadata>
  <defs
     id="defs18" />
  <sodipodi:namedview
     pagecolor="#ffffff"
     bordercolor="#666666"
     borderopacity="1"
     objecttolerance="10"
     gridtolerance="10"
     guidetolerance="10"
     inkscape:pageopacity="0"
     inkscape:pageshadow="2"
     inkscape:window-width="686"
     inkscape:window-height="480"
     id="namedview16"
     showgrid="false"
     inkscape:zoom="1.888"
     inkscape:cx="23.26"
     inkscape:cy="27.83"
     inkscape:window-x="0"
     inkscape:window-y="0"
     inkscape:window-maximized="0"
     inkscape:current-layer="svg14" />
  <title
     id="title2">Artboard 1</title>
  <path
     d="m 10,74.88 h 2.75 v 1.06 a 2.77,2.77 0 1 0 5.54,0 v -1.06 h 12.92 v 1.06 a 2.77,2.77 0 1 0 5.54,0 v -1.06 h 2.75 a 10,10 0 0 0 10,-10 v -43.5 a 10,10 0 0 0 -10,-10 H 36.75 V 6 a 6,6 0 0 0 -6,-6 h -12 a 6,6 0 0 0 -6,6 v 5.38 H 10 a 10,10 0 0 0 -10,10 v 43.5 a 10,10 0 0 0 10,10 z m 6.26,1.06 a 0.77,0.77 0 1 1 -1.54,0 v -2.06 0 -2.06 a 0.77,0.77 0 1 1 1.54,0 z m 18.46,0 a 0.77,0.77 0 1 1 -1.54,0 v -4.12 a 0.77,0.77 0 1 1 1.54,0 z M 14.72,6 a 4,4 0 0 1 4,-4 h 12 a 4,4 0 0 1 4,4 v 5.38 H 33.21 V 8.02 A 4.4,4.4 0 0 0 28.82,3.63 h -8.14 a 4.4,4.4 0 0 0 -4.42,4.39 v 3.36 h -1.51 z m 16.49,5.38 H 18.26 V 8.02 a 2.39,2.39 0 0 1 2.39,-2.39 h 8.14 a 2.39,2.39 0 0 1 2.39,2.39 z M 2,21.38 a 8,8 0 0 1 8,-8 h 29.5 a 8,8 0 0 1 8,8 v 43.5 a 8,8 0 0 1 -8,8 h -2.75 v -1.06 a 2.77,2.77 0 1 0 -5.54,0 v 1.06 H 18.26 v -1.06 a 2.77,2.77 0 1 0 -5.54,0 v 1.06 H 10 a 8,8 0 0 1 -8,-8 z"
     id="path4"
     inkscape:connector-curvature="0" />
  <path
     d="m 13.56,67.45 h 22.37 a 7.84,7.84 0 0 0 7.83,-7.83 v -33 A 7.84,7.84 0 0 0 35.93,18.79 H 13.56 a 7.84,7.84 0 0 0 -7.83,7.83 v 33 a 7.84,7.84 0 0 0 7.83,7.83 z M 7.73,26.63 a 5.83,5.83 0 0 1 5.83,-5.83 h 22.37 a 5.83,5.83 0 0 1 5.83,5.83 v 33 a 5.83,5.83 0 0 1 -5.83,5.83 H 13.56 A 5.83,5.83 0 0 1 7.73,59.63 Z"
     id="path6"
     inkscape:connector-curvature="0" />
  <path
     d="m 13.76,34.88 h 17.45 v 3.17 a 1,1 0 0 0 2,0 v -3.17 h 2.54 a 1,1 0 0 0 0,-2 h -22 a 1,1 0 0 0 0,2 z"
     id="path8"
     inkscape:connector-curvature="0" />
</svg>
