<?xml version="1.0" encoding="UTF-8" standalone="no"?>
<svg
   xmlns:dc="http://purl.org/dc/elements/1.1/"
   xmlns:cc="http://creativecommons.org/ns#"
   xmlns:rdf="http://www.w3.org/1999/02/22-rdf-syntax-ns#"
   xmlns:svg="http://www.w3.org/2000/svg"
   xmlns="http://www.w3.org/2000/svg"
   xmlns:sodipodi="http://sodipodi.sourceforge.net/DTD/sodipodi-0.dtd"
   xmlns:inkscape="http://www.inkscape.org/namespaces/inkscape"
   data-name="Layer 1"
   viewBox="0 0 69.634705 48.93647"
   x="0px"
   y="0px"
   version="1.1"
   id="svg14"
   sodipodi:docname="shorts.svg"
   width="69.634705"
   height="48.93647"
   inkscape:version="0.92.2 (5c3e80d, 2017-08-06)">
  <metadata
     id="metadata20">
    <rdf:RDF>
      <cc:Work
         rdf:about="">
        <dc:format>image/svg+xml</dc:format>
        <dc:type
           rdf:resource="http://purl.org/dc/dcmitype/StillImage" />
        <dc:title>Artboard 42</dc:title>
      </cc:Work>
    </rdf:RDF>
  </metadata>
  <defs
     id="defs18" />
  <sodipodi:namedview
     pagecolor="#ffffff"
     bordercolor="#666666"
     borderopacity="1"
     objecttolerance="10"
     gridtolerance="10"
     guidetolerance="10"
     inkscape:pageopacity="0"
     inkscape:pageshadow="2"
     inkscape:window-width="1205"
     inkscape:window-height="899"
     id="namedview16"
     showgrid="false"
     inkscape:zoom="1.888"
     inkscape:cx="35.777352"
     inkscape:cy="10.867352"
     inkscape:window-x="0"
     inkscape:window-y="0"
     inkscape:window-maximized="0"
     inkscape:current-layer="svg14" />
  <title
     id="title2">Artboard 42</title>
  <path
     d="m 57.657352,0.68911738 a 1,1 0 0 0 -1.26,-0.64 69.09,69.09 0 0 1 -43.13,0 1,1 0 0 0 -1.26,0.64 L 0.14735215,37.009117 a 3,3 0 0 0 1.91999995,3.78 l 24.4199999,8 a 3,3 0 0 0 3.78,-1.92 l 3.6,-11 a 1,1 0 0 1 1.9,0 l 3.6,11 a 3,3 0 0 0 3.78,1.92 l 24.42,-8 a 3,3 0 0 0 1.92,-3.78 z m -44.07,1.56000002 a 71,71 0 0 0 42.47,0 l 1.65,5 a 75.93,75.93 0 0 1 -45.76,0 z m 53.95,36.1499996 a 1,1 0 0 1 -0.58,0.5 l -24.42,8 a 1,1 0 0 1 -1.26,-0.64 l -3.6,-11 a 3,3 0 0 0 -5.7,0 l -3.6,11 a 1,1 0 0 1 -1.26,0.64 l -24.4199999,-8 a 1,1 0 0 1 -0.64,-1.26 L 11.327352,9.2091174 a 78.29,78.29 0 0 0 23.45,3.6399996 78.29,78.29 0 0 0 23.5,-3.6399996 l 9.27,28.4299996 a 1,1 0 0 1 -0.01,0.76 z"
     id="path4"
     inkscape:connector-curvature="0" />
  <path
     d="m 20.257352,13.689117 a 1,1 0 0 0 -1.41,0 l -9.1499999,9.15 a 1,1 0 1 0 1.4099999,1.41 l 8.44,-8.44 1.29,1.29 -4.81,4.81 a 1,1 0 0 0 1.41,1.41 l 5.52,-5.52 a 1,1 0 0 0 0,-1.41 z"
     id="path6"
     inkscape:connector-curvature="0" />
  <path
     d="m 50.777352,13.689117 a 1,1 0 0 0 -1.41,0 l -2.71,2.71 a 1,1 0 0 0 0,1.41 l 5.52,5.52 a 1,1 0 0 0 1.41,-1.41 l -4.81,-4.81 1.29,-1.29 8.44,8.44 a 1,1 0 0 0 1.41,-1.41 z"
     id="path8"
     inkscape:connector-curvature="0" />
</svg>
