<?xml version="1.0" encoding="UTF-8" standalone="no"?>
<svg
   xmlns:dc="http://purl.org/dc/elements/1.1/"
   xmlns:cc="http://creativecommons.org/ns#"
   xmlns:rdf="http://www.w3.org/1999/02/22-rdf-syntax-ns#"
   xmlns:svg="http://www.w3.org/2000/svg"
   xmlns="http://www.w3.org/2000/svg"
   xmlns:sodipodi="http://sodipodi.sourceforge.net/DTD/sodipodi-0.dtd"
   xmlns:inkscape="http://www.inkscape.org/namespaces/inkscape"
   data-name="Layer 1"
   viewBox="0 0 72.378128 70.995163"
   x="0px"
   y="0px"
   version="1.1"
   id="svg30"
   sodipodi:docname="tickets.svg"
   width="72.378128"
   height="70.995163"
   inkscape:version="0.92.2 (5c3e80d, 2017-08-06)">
  <metadata
     id="metadata36">
    <rdf:RDF>
      <cc:Work
         rdf:about="">
        <dc:format>image/svg+xml</dc:format>
        <dc:type
           rdf:resource="http://purl.org/dc/dcmitype/StillImage" />
        <dc:title>Artboard 9</dc:title>
      </cc:Work>
    </rdf:RDF>
  </metadata>
  <defs
     id="defs34" />
  <sodipodi:namedview
     pagecolor="#ffffff"
     bordercolor="#666666"
     borderopacity="1"
     objecttolerance="10"
     gridtolerance="10"
     guidetolerance="10"
     inkscape:pageopacity="0"
     inkscape:pageshadow="2"
     inkscape:window-width="686"
     inkscape:window-height="480"
     id="namedview32"
     showgrid="false"
     inkscape:zoom="1.888"
     inkscape:cx="36.884649"
     inkscape:cy="24.33"
     inkscape:window-x="305"
     inkscape:window-y="252"
     inkscape:window-maximized="0"
     inkscape:current-layer="svg30" />
  <title
     id="title2">Artboard 9</title>
  <path
     d="m 50.308065,46.745161 a 6.77,6.77 0 0 0 4.4,1.56 8.16,8.16 0 0 0 1.42,-0.14 9.8,9.8 0 0 0 7.86,-9.26 6.82,6.82 0 0 0 -2.38,-5.34 7,7 0 0 0 -5.82,-1.4 9.8,9.8 0 0 0 -7.86,9.26 6.82,6.82 0 0 0 2.38,5.32 z m -0.3,-4.52 2.31,-0.41 a 12.36,12.36 0 0 0 0.94,4.27 4.58,4.58 0 0 1 -1.67,-0.88 4.69,4.69 0 0 1 -1.58,-2.97 z m 6.12,-8.06 v 0 a 0.33,0.33 0 0 1 0.15,0.08 c 0.61,0.51 1.21,2.24 1.33,4.66 l -3.29,0.58 c 0.23,-3.38 1.32,-5.32 1.81,-5.32 z m 1.46,6.78 c -0.22,3.28 -1.31,5.22 -1.8,5.22 0,0 -0.1,0 -0.15,-0.08 -0.61,-0.51 -1.21,-2.24 -1.33,-4.66 z m 1.3,3.93 a 16.52,16.52 0 0 0 0.72,-4.29 l 2.25,-0.4 a 7.83,7.83 0 0 1 -2.96,4.64 z m 3,-6.72 -2.31,0.41 a 12.37,12.37 0 0 0 -0.87,-4.32 4.57,4.57 0 0 1 1.66,0.87 4.69,4.69 0 0 1 1.54,2.98 z m -8.89,-2.59 a 16.52,16.52 0 0 0 -0.72,4.29 l -2.25,0.4 a 7.83,7.83 0 0 1 2.99,-4.75 z"
     id="path4"
     inkscape:connector-curvature="0" />
  <path
     d="m 47.368065,57.695161 h 0.15 l 17.19,-2.68 a 1.0119412,1.0119412 0 1 0 -0.31,-2 l -17.19,2.69 a 1.0028086,1.0028086 0 0 0 0.15,2 z"
     id="path6"
     inkscape:connector-curvature="0" />
  <path
     d="m 30.248065,25.495161 a 1,1 0 1 0 -0.7,-1.87 l -0.9,0.34 a 1,1 0 1 0 0.7,1.87 z"
     id="path8"
     inkscape:connector-curvature="0" />
  <path
     d="m 34.038065,21.935161 -0.9,0.34 a 1,1 0 1 0 0.7,1.87 l 0.9,-0.34 a 1,1 0 1 0 -0.7,-1.87 z"
     id="path10"
     inkscape:connector-curvature="0" />
  <path
     d="m 25.058065,25.305161 -0.9,0.34 a 1,1 0 1 0 0.7,1.87 l 0.9,-0.34 a 1,1 0 1 0 -0.7,-1.87 z"
     id="path12"
     inkscape:connector-curvature="0" />
  <path
     d="m 37.978065,22.525161 a 1,1 0 0 0 0.35,-0.06 l 0.9,-0.34 a 1,1 0 1 0 -0.7,-1.87 l -0.9,0.34 a 1,1 0 0 0 0.35,1.94 z"
     id="path14"
     inkscape:connector-curvature="0" />
  <path
     d="m 29.948065,34.015161 a 1,1 0 0 0 -0.58,1.29 l 5.34,14.26 a 1,1 0 0 0 1.87,-0.7 l -5.34,-14.26 a 1,1 0 0 0 -1.29,-0.59 z"
     id="path16"
     inkscape:connector-curvature="0" />
  <path
     d="m 23.818065,20.545161 a 1,1 0 0 0 1.29,0.62 l 10.3,-3.9 a 1,1 0 0 0 0.58,-1.29 l -3.14,-8.3699998 a 1,1 0 0 0 -1.29,-0.58 l -10.3,3.8699998 a 1,1 0 0 0 -0.55,1.27 z m 7.51,-11.2999998 2.44,6.4999998 -8.43,3.16 -2.44,-6.5 z"
     id="path18"
     inkscape:connector-curvature="0" />
  <path
     d="m 0.45806529,32.625161 a 4,4 0 0 1 1.17000001,5.54 1,1 0 0 0 0.29,1.38 l 28.3799997,18.41 1.69,4.5 a 1,1 0 0 0 1.29,0.58 4,4 0 0 1 4.93,1.86 v 5.1 a 1,1 0 0 0 1,1 h 0.15 l 32.17,-5 a 1,1 0 0 0 0.85,-1 v -45.66 a 1,1 0 0 0 -1.15,-1 l -8.52,1.33 v -4.67 a 1,1 0 0 0 -1.38,-0.92 l -5.18,2.15 v -5.23 a 1,1 0 0 0 -1.64,-0.77 l -10,8.34 -5.62,-14.9999998 a 1,1 0 0 0 -1.29,-0.58 4,4 0 0 1 -5.15,-2.33999997 1,1 0 0 0 -1.29,-0.58 l -14.2,5.32999997 a 1,1 0 0 0 -0.58,1.29 4,4 0 0 1 -2.34,5.1499998 1,1 0 0 0 -0.56,1.33 l 1.59,4.24 a 4,4 0 0 1 -5.2699997,0.85 1,1 0 0 0 -1.38,0.29 l -8.26000001,12.7 a 1,1 0 0 0 0.3,1.38 z m 69.91999971,31.54 -30.17,4.67 v -43.67 l 30.17,-4.69 z m -9.67,-44.19 -13.42,2.09 13.42,-5.57 z m -6.56,-2.92 -9.28,3.85 9.28,-7.74 z m -36,-6.46 a 6,6 0 0 0 0.43,-3.6199998 l 12.48,-4.69 a 6,6 0 0 0 6.3,2.88 l 5.11,13.6099998 -0.36,0.13 a 1,1 0 0 0 -0.58,1.26 1,1 0 0 0 0.45,0.51 l -3.41,2.89 v 0 l -0.06,0.06 a 3.1,3.1 0 0 0 -0.17,0.26 v 0.05 a 1,1 0 0 0 0,0.17 1,1 0 0 0 0,0.15 c 0,0 0,0 0,0 v 0 13.27 l -1.82,-4.85 a 1,1 0 0 0 -1.87,0.7 l 3.56,9.79 v 18.77 a 6,6 0 0 0 -4.67,-1 l -12.07,-32.19 a 1,1 0 0 0 -0.67,-1.79 l -5.09,-13.66 a 6,6 0 0 0 2.41,-2.7 z m 1.56,19.13 -4.81,7.44 -5.8199997,-3.78 4.8999997,-7.55 5.63,3.65 z m -10.1199997,-9.34 a 5.91,5.91 0 0 0 6.2499997,-1 l 2.58,6.88 -4.2,-2.73 a 1,1 0 0 0 -1.38,0.29 l -5.9999997,9.23 a 1,1 0 0 0 0.29,1.38 l 7.4999997,4.87 a 1,1 0 0 0 0.54,0.16 h 0.21 a 1,1 0 0 0 0.63,-0.43 l 4.55,-7 1.7,4.53 -0.26,0.4 a 1,1 0 0 0 0.84,1.54 h 0.15 l 6.11,16.29 -11.57,-7.51 a 1,1 0 0 0 -1.42,-0.92 l -12.3299997,-8 a 6,6 0 0 0 -1.45,-6.8 z"
     id="path20"
     inkscape:connector-curvature="0" />
  <path
     d="m 20.058065,41.835161 a 1,1 0 0 0 1.38,-0.29 l 0.45,-0.69 a 1.0013116,1.0013116 0 0 0 -1.68,-1.09 l -0.45,0.69 a 1,1 0 0 0 0.3,1.38 z"
     id="path22"
     inkscape:connector-curvature="0" />
  <path
     d="m 17.808065,45.305161 a 1,1 0 0 0 1.38,-0.29 l 0.45,-0.69 a 1.0013116,1.0013116 0 1 0 -1.68,-1.09 l -0.45,0.69 a 1,1 0 0 0 0.3,1.38 z"
     id="path24"
     inkscape:connector-curvature="0" />
</svg>
