<?xml version="1.0" encoding="UTF-8" standalone="no"?>
<svg
   xmlns:dc="http://purl.org/dc/elements/1.1/"
   xmlns:cc="http://creativecommons.org/ns#"
   xmlns:rdf="http://www.w3.org/1999/02/22-rdf-syntax-ns#"
   xmlns:svg="http://www.w3.org/2000/svg"
   xmlns="http://www.w3.org/2000/svg"
   xmlns:sodipodi="http://sodipodi.sourceforge.net/DTD/sodipodi-0.dtd"
   xmlns:inkscape="http://www.inkscape.org/namespaces/inkscape"
   data-name="Layer 1"
   viewBox="0 0 84 51.330002"
   x="0px"
   y="0px"
   version="1.1"
   id="svg10"
   sodipodi:docname="toothbrush.svg"
   width="84"
   height="51.330002"
   inkscape:version="0.92.2 (5c3e80d, 2017-08-06)">
  <metadata
     id="metadata16">
    <rdf:RDF>
      <cc:Work
         rdf:about="">
        <dc:format>image/svg+xml</dc:format>
        <dc:type
           rdf:resource="http://purl.org/dc/dcmitype/StillImage" />
        <dc:title>Artboard 45</dc:title>
      </cc:Work>
    </rdf:RDF>
  </metadata>
  <defs
     id="defs14" />
  <sodipodi:namedview
     pagecolor="#ffffff"
     bordercolor="#666666"
     borderopacity="1"
     objecttolerance="10"
     gridtolerance="10"
     guidetolerance="10"
     inkscape:pageopacity="0"
     inkscape:pageshadow="2"
     inkscape:window-width="686"
     inkscape:window-height="480"
     id="namedview12"
     showgrid="false"
     inkscape:zoom="1.888"
     inkscape:cx="31.926377"
     inkscape:cy="10.5"
     inkscape:window-x="0"
     inkscape:window-y="0"
     inkscape:window-maximized="0"
     inkscape:current-layer="svg10" />
  <title
     id="title2">Artboard 45</title>
  <path
     d="M 78.5,40.33 H 78 v -17.5 a 3.5,3.5 0 0 0 -3.5,-3.5 H 72.19 A 20.47,20.47 0 0 0 82,1.83 V 0 L 80.2,0.33 A 95.24,95.24 0 0 1 47.34,0.74 20.16,20.16 0 0 0 36.52,1.92 20.47,20.47 0 0 0 24,20.83 v 1.8 l 1.77,-0.3 c 1.47,-0.27 3,-0.49 4.46,-0.69 A 3.46,3.46 0 0 0 30,22.83 v 17.5 H 1.5 a 1.5,1.5 0 0 0 0,3 h 77 a 2.5,2.5 0 0 1 0,5 h -77 a 1.5,1.5 0 0 0 0,3 h 77 a 5.5,5.5 0 0 0 0,-11 z M 27.09,19.03 A 17.47,17.47 0 0 1 37.69,4.7 17.2,17.2 0 0 1 46.9,3.7 99.54,99.54 0 0 0 78.9,3.63 17.06,17.06 0 0 1 59.23,18.99 124.42,124.42 0 0 0 42.63,17.82 97,97 0 0 0 27.09,19.03 Z M 75,40.33 H 33 v -17.5 a 0.5,0.5 0 0 1 0.5,-0.5 h 2.93 v 13.5 a 1.5,1.5 0 0 0 3,0 v -13.5 h 3.43 v 13.5 a 1.5,1.5 0 0 0 3,0 v -13.5 h 3.43 v 13.5 a 1.5,1.5 0 0 0 3,0 v -13.5 h 3.43 v 13.5 a 1.5,1.5 0 0 0 3,0 v -13.5 h 3.43 v 13.5 a 1.5,1.5 0 1 0 3,0 v -13.5 h 3.43 v 13.5 a 1.5,1.5 0 0 0 3,0 v -13.5 h 2.92 a 0.5,0.5 0 0 1 0.5,0.5 z"
     id="path4"
     inkscape:connector-curvature="0" />
</svg>
